Coordinates
version=1
nRows=20
nColumns=34
inDegrees=yes

Units are S.I. units (second, meters, Newtons, ...)
If the header above contains a line with 'inDegrees', this indicates whether rotational values are in degrees (yes) or radians (no).

endheader
time	pelvis_tilt	pelvis_list	pelvis_rotation	pelvis_tx	pelvis_ty	pelvis_tz	hip_flexion_r	hip_adduction_r	hip_rotation_r	knee_angle_r	ankle_angle_r	subtalar_angle_r	mtp_angle_r	hip_flexion_l	hip_adduction_l	hip_rotation_l	knee_angle_l	ankle_angle_l	subtalar_angle_l	mtp_angle_l	lumbar_extension	lumbar_bending	lumbar_rotation	arm_flex_r	arm_add_r	arm_rot_r	elbow_flex_r	pro_sup_r	arm_flex_l	arm_add_l	arm_rot_l	elbow_flex_l	pro_sup_l
      1.50000000	     -1.23621390	     -0.19458483	     -3.75560348	      1.66742692	      0.88434274	     -0.02901238	     -1.73011764	     -3.84276129	     -0.48703471	      0.02296300	      1.57773367	    -20.00854397	      0.00000000	     -2.80875407	     -5.03739404	      2.35727885	      0.00000000	      1.85774999	    -11.64273460	      0.00000000	     -7.55151545	      0.97959911	     -0.55581381	     11.25819179	     -9.83884751	     41.42484735	     81.73613341	     92.78177197	      9.23921926	    -10.09135579	     36.83757427	     69.28319402	     84.95421659
      1.51666670	     -1.24057962	     -0.19817580	     -3.75817835	      1.66728487	      0.88443663	     -0.02901564	     -1.73207055	     -3.84432090	     -0.48734044	      0.02342029	      1.57755885	    -20.00913265	      0.00000000	     -2.80967724	     -5.03571485	      2.35794919	      0.00000000	      1.85749218	    -11.64267755	      0.00000000	     -7.55072415	      0.97887389	     -0.55667883	     11.25775417	     -9.83846161	     41.42506127	     81.73651300	     92.78152445	      9.23976732	    -10.09135184	     36.83831758	     69.28318138	     84.95427043
      1.53333330	     -1.23837414	     -0.21446641	     -3.83808298	      1.66697068	      0.88431295	     -0.02894432	     -1.70965267	     -3.85466082	     -0.49457959	      0.00000000	      1.56935485	    -20.02466202	      0.00000000	     -2.81280285	     -5.01785625	      2.38838826	      0.00000000	      1.85202155	    -11.63749555	      0.00000000	     -7.52081439	      0.96108304	     -0.58525293	     11.25170636	     -9.82105216	     41.43087068	     81.75699841	     92.77281839	      9.26004260	    -10.08718232	     36.86506886	     69.28404569	     84.95611054
      1.55000000	     -1.23789841	     -0.22158403	     -3.83751770	      1.66688228	      0.88422513	     -0.02873994	     -1.70935969	     -3.85667421	     -0.49445952	      0.00000000	      1.56901593	    -20.02485258	      0.00000000	     -2.81204379	     -5.01336176	      2.38896708	      0.00000000	      1.85206070	    -11.63744350	      0.00000000	     -7.51999188	      0.96069240	     -0.58527593	     11.25186433	     -9.82054891	     41.43096287	     81.75762694	     92.77257877	      9.25992810	    -10.08734198	     36.86583957	     69.28391845	     84.95615776
      1.56666670	     -1.22369462	     -0.22897489	     -3.84164602	      1.66670528	      0.88391002	     -0.02880887	     -1.70089131	     -3.85116804	     -0.49370782	      0.00000000	      1.56645148	    -20.02606440	      0.00000000	     -2.80336185	     -5.00249371	      2.39424728	      0.00000000	      1.85279234	    -11.63679896	      0.00000000	     -7.51466626	      0.95577370	     -0.58396240	     11.25506575	     -9.81710916	     41.43027344	     81.76232137	     92.77073091	      9.25742617	    -10.09088041	     36.87137374	     69.28214982	     84.95648187
      1.58333330	     -1.22009356	     -0.22520124	     -3.84354955	      1.66679753	      0.88393708	     -0.02910785	     -1.69915787	     -3.84872288	     -0.49361857	      0.00000000	      1.56609490	    -20.02623953	      0.00000000	     -2.80113937	     -5.00415680	      2.39497526	      0.00000000	      1.85288246	    -11.63670939	      0.00000000	     -7.51419582	      0.95463135	     -0.58352026	     11.25576449	     -9.81681553	     41.42991220	     81.76285225	     92.77046405	      9.25672121	    -10.09189238	     36.87208145	     69.28170768	     84.95652138
      1.60000000	     -1.21704526	     -0.24442721	     -3.85155937	      1.66694774	      0.88416010	     -0.02983120	     -1.69661695	     -3.85582374	     -0.49470302	      0.00000000	      1.56313014	    -20.02805179	      0.00000000	     -2.79295922	     -4.99632848	      2.39936269	      0.00000000	      1.85313730	    -11.63638284	      0.00000000	     -7.51170441	      0.94703891	     -0.58121722	     11.26132080	     -9.81939410	     41.42484479	     81.76538669	     92.76839543	      9.24781085	    -10.09970817	     36.87791222	     69.27739893	     84.95684330
      1.61666670	     -1.21675658	     -0.24206853	     -3.85403553	      1.66699975	      0.88427114	     -0.03004954	     -1.69735187	     -3.85541559	     -0.49525497	      0.00000000	      1.56261260	    -20.02845155	      0.00000000	     -2.79113919	     -4.99724924	      2.39979018	      0.00000000	      1.85316382	    -11.63650547	      0.00000000	     -7.51133779	      0.94610197	     -0.58101582	     11.26211485	     -9.82028360	     41.42384356	     81.76564489	     92.76807395	      9.24608138	    -10.10089345	     36.87885172	     69.27665573	     84.95689570
      1.63333330	     -1.21969409	     -0.25063022	     -3.86128089	      1.66681605	      0.88449593	     -0.03020546	     -1.70285244	     -3.86009167	     -0.49868876	      0.00000000	      1.56092529	    -20.03031642	      0.00000000	     -2.78638675	     -4.98919074	      2.40052784	      0.00000000	      1.85311711	    -11.63719855	      0.00000000	     -7.50969950	      0.94380299	     -0.58086236	     11.26397433	     -9.82423507	     41.42040973	     81.76625478	     92.76704907	      9.23938980	    -10.10434510	     36.88211068	     69.27405304	     84.95707965
      1.65000000	     -1.22447114	     -0.25356726	     -3.86246943	      1.66654500	      0.88435430	     -0.03005924	     -1.70557818	     -3.86132587	     -0.50017501	      0.00028840	      1.56040812	    -20.03098979	      0.00000000	     -2.78818568	     -4.98487789	      2.40051423	      0.00000000	      1.85305801	    -11.63751692	      0.00000000	     -7.50911099	      0.94357506	     -0.58102099	     11.26432674	     -9.82571746	     41.41936785	     81.76640972	     92.76673988	      9.23720498	    -10.10513786	     36.88316733	     69.27323984	     84.95714015
      1.66666670	     -1.21997465	     -0.17686244	     -3.99698156	      1.66635896	      0.88398896	     -0.02968487	     -1.66232722	     -3.95054083	     -0.66088005	      0.00052905	      1.51723434	    -20.11459545	      0.00000000	     -2.82373479	     -4.87976870	      2.38381267	      0.00000000	      1.84688966	    -11.68561821	      0.00000000	     -7.45771428	      0.89057668	     -0.57719576	     11.32389559	     -9.94386172	     41.31377699	     81.79983824	     92.73343137	      9.04617146	    -10.21278442	     36.97746871	     69.18710433	     84.96248915
      1.68333330	     -1.22111763	     -0.17728439	     -3.99351587	      1.66624277	      0.88406095	     -0.02949905	     -1.66231488	     -3.95079735	     -0.66087568	      0.00000417	      1.51673573	    -20.11474893	      0.00000000	     -2.82441799	     -4.87835540	      2.38298636	      0.00000000	      1.84696548	    -11.68638251	      0.00000000	     -7.45687839	      0.89025172	     -0.57702332	     11.32386410	     -9.94388067	     41.31340376	     81.80029962	     92.73313723	      9.04565158	    -10.21314754	     36.97800985	     69.18675994	     84.96251887
      1.70000000	     -1.21479880	     -0.16415953	     -3.98120888	      1.66603792	      0.88419058	     -0.02933079	     -1.65716107	     -3.94431074	     -0.66159652	      0.00000000	      1.51544659	    -20.11612713	      0.00000000	     -2.82420698	     -4.88126297	      2.37929364	      0.00000000	      1.84716437	    -11.68970559	      0.00000000	     -7.45390807	      0.88718421	     -0.57542183	     11.32397461	     -9.94380025	     41.31154650	     81.80213333	     92.73187771	      9.04290753	    -10.21678455	     36.97988193	     69.18458622	     84.96261283
      1.71666670	     -1.21827746	     -0.16035001	     -3.97930211	      1.66583642	      0.88421475	     -0.02948206	     -1.65854911	     -3.94229772	     -0.66199447	      0.00000000	      1.51533812	    -20.11663197	      0.00000000	     -2.82587200	     -4.88284476	      2.37836932	      0.00000000	      1.84716647	    -11.69043518	      0.00000000	     -7.45338276	      0.88594136	     -0.57486715	     11.32410806	     -9.94381384	     41.31100109	     81.80243630	     92.73159808	      9.04212153	    -10.21812957	     36.98020155	     69.18392933	     84.96262721
      1.73333330	     -1.22222127	     -0.16622587	     -3.86332728	      1.66546974	      0.88364049	     -0.02994760	     -1.66813013	     -3.92614523	     -0.69829607	      0.00000000	      1.51465601	    -20.16037940	      0.00000000	     -2.77858399	     -4.89552484	      2.32510690	      0.00000000	      1.84736125	    -11.73568412	      0.00000000	     -7.44718344	      0.81254679	     -0.55927165	     11.35723320	     -9.97232832	     41.25216745	     81.81198262	     92.71141426	      9.01536728	    -10.30680789	     36.99728967	     69.14012929	     84.96346241
      1.75000000	     -1.20989381	     -0.17388713	     -3.86763261	      1.66506565	      0.88329561	     -0.03042809	     -1.65825294	     -3.92575930	     -0.70455600	      0.00000000	      1.51578160	    -20.16696672	      0.00000000	     -2.77237055	     -4.88959582	      2.32380415	      0.00000000	      1.84669510	    -11.73829743	      0.00000000	     -7.44602703	      0.80893874	     -0.56424913	     11.35723191	     -9.97610096	     41.24554083	     81.81178246	     92.70901271	      9.01760059	    -10.31280037	     36.99956455	     69.13712965	     84.96362020
      1.76666670	     -1.25550097	     -0.16316147	     -3.80703544	      1.66470345	      0.88342476	     -0.03048998	     -1.58322058	     -3.93938066	     -0.80393371	      0.00000000	      1.53268233	    -20.28310154	      0.00000000	     -2.67002078	     -4.87013514	      2.27142577	      0.00000000	      1.85015575	    -11.80439750	      0.00000000	     -7.50256462	      0.79757825	     -0.62389905	     11.39713866	    -10.05193393	     41.11906654	     81.78979563	     92.66499157	      9.08643903	    -10.41513996	     37.03520742	     69.08506212	     84.96618953
      1.78333330	     -1.24679798	     -0.17613318	     -3.80366492	      1.66473548	      0.88290127	     -0.02995216	     -1.57847653	     -3.94366101	     -0.80393610	      0.00000000	      1.53246773	    -20.28340462	      0.00000000	     -2.66783307	     -4.86351634	      2.27186231	      0.00000000	      1.84994341	    -11.80433304	      0.00000000	     -7.50227694	      0.79801262	     -0.62404379	     11.39673683	    -10.05165469	     41.11876025	     81.78970192	     92.66469655	      9.08663737	    -10.41486821	     37.03576262	     69.08497172	     84.96622668
      1.80000000	     -1.22412473	     -0.16663073	     -3.79280158	      1.66438196	      0.88267506	     -0.02903291	     -1.56417165	     -3.93394534	     -0.80395544	      0.00000000	      1.53186324	    -20.28646002	      0.00000000	     -2.65685366	     -4.86856930	      2.27387459	      0.00000000	      1.84952475	    -11.80509477	      0.00000000	     -7.50227461	      0.80003900	     -0.62087340	     11.39277029	    -10.04579630	     41.11912488	     81.78912445	     92.66277566	      9.08885823	    -10.41635201	     37.03856728	     69.08427402	     84.96641796
      1.81666670	     -1.25776110	     -0.20785369	     -3.70786782	      1.66390825	      0.88214714	     -0.02867674	     -1.52015634	     -3.85379728	     -0.81013344	      0.00031033	      1.53570552	    -20.33847655	      0.00000000	     -2.56422258	     -4.94857891	      2.29633026	      0.00000000	      1.84112364	    -11.81001682	      0.00000000	     -7.56049109	      0.78221260	     -0.54035883	     11.33815595	     -9.91950969	     41.15311242	     81.78057208	     92.64043763	      9.14716252	    -10.48086022	     37.05602795	     69.07085817	     84.96759114
